<svg width="56" height="64" viewBox="0 0 56 64" fill="none" xmlns="http://www.w3.org/2000/svg">
<circle cx="28" cy="28" r="28" fill="#7065F0"/>
<g clip-path="url(#clip0_1_2291)">
<path d="M35 24.7099L29.667 20.5619C29.199 20.1978 28.623 20.0002 28.03 20.0002C27.4371 20.0002 26.861 20.1978 26.393 20.5619L21.059 24.7099C20.7385 24.9592 20.4791 25.2784 20.3008 25.6433C20.1224 26.0081 20.0298 26.4088 20.03 26.8149V34.0149C20.03 34.5454 20.2407 35.0541 20.6158 35.4291C20.9909 35.8042 21.4996 36.0149 22.03 36.0149H34.03C34.5605 36.0149 35.0692 35.8042 35.4442 35.4291C35.8193 35.0541 36.03 34.5454 36.03 34.0149V26.8149C36.03 25.9919 35.65 25.2149 35 24.7099Z" fill="white" stroke="white" stroke-width="3" stroke-linecap="round" stroke-linejoin="round"/>
<path d="M32 31C29.79 32.333 26.208 32.333 24 31" stroke="#7065F0" stroke-width="3" stroke-linecap="round" stroke-linejoin="round"/>
</g>
<path d="M29.732 61C28.9622 62.3333 27.0377 62.3333 26.2679 61L22.8038 55C22.034 53.6667 22.9963 52 24.5359 52L31.4641 52C33.0037 52 33.966 53.6667 33.1962 55L29.732 61Z" fill="#7065F0"/>
<defs>
<clipPath id="clip0_1_2291">
<rect width="24" height="24" fill="white" transform="translate(16 16)"/>
</clipPath>
</defs>
</svg>
